# xmcd
#
# Track frame offsets:
#	150
#	16452
#	32462
#	46252
#	61932
#	81645
#	102395
#	122677
#	135512
#	156917
#	173212
#	193552
#	212055
#
# Disc length: 2966
#
# Revision: 1
# Processed by: cddbd v1.5.1PL0 Copyright (c) Steve Scherf et al.
# Submitted via: FreeRIP 2.70 
# Normalized: r0:TRMNUM
#
DISCID=ae0b940d
DTITLE=Anne Murray - Let there be love
DYEAR=1999
DGENRE=Country
TTITLE0=let there be love
TTITLE1=lean on me
TTITLE2=I can see clearly now
TTITLE3=Let it be
TTITLE4=In the garden
TTITLE5=you've got a friend
TTITLE6=whispering hope
TTITLE7=Put a little love in your heart
TTITLE8=I believe in you
TTITLE9=It is no secret
TTITLE10=Bridge over troubled water
TTITLE11=Softly and Tenderly
TTITLE12=What a wonderful world
EXTD=
EXTT0=
EXTT1=
EXTT2=
EXTT3=
EXTT4=
EXTT5=
EXTT6=
EXTT7=
EXTT8=
EXTT9=
EXTT10=
EXTT11=
EXTT12=
PLAYORDER=
